<svg xmlns="http://www.w3.org/2000/svg" viewBox="0 0 1600 900" role="img" aria-label="KitNegocio hero">
  <defs>
    <linearGradient id="sky" x1="0" y1="0" x2="1" y2="1">
      <stop offset="0%" stop-color="#061018"/>
      <stop offset="55%" stop-color="#0B3A48"/>
      <stop offset="100%" stop-color="#0E7490"/>
    </linearGradient>
    <linearGradient id="glow" x1="0" y1="1" x2="1" y2="0">
      <stop offset="0%" stop-color="#F0592A" stop-opacity="0.35"/>
      <stop offset="100%" stop-color="#0E7490" stop-opacity="0"/>
    </linearGradient>
  </defs>
  <rect width="1600" height="900" fill="url(#sky)"/>
  <circle cx="1280" cy="160" r="220" fill="url(#glow)"/>
  <circle cx="220" cy="720" r="180" fill="#0E7490" opacity="0.25"/>
  <g transform="translate(980 170)">
    <rect x="0" y="0" width="320" height="560" rx="42" fill="#10232B"/>
    <rect x="14" y="14" width="292" height="532" rx="32" fill="#F8FAFC"/>
    <rect x="36" y="48" width="248" height="248" rx="18" fill="#0E7490"/>
    <rect x="36" y="316" width="160" height="14" rx="7" fill="#0B1220" opacity="0.8"/>
    <rect x="36" y="344" width="220" height="10" rx="5" fill="#64748B"/>
    <rect x="36" y="368" width="188" height="10" rx="5" fill="#94A3B8"/>
    <rect x="36" y="410" width="248" height="48" rx="12" fill="#F0592A"/>
    <rect x="36" y="476" width="118" height="36" rx="10" fill="#ECFEFF"/>
    <rect x="166" y="476" width="118" height="36" rx="10" fill="#FFF1EB"/>
  </g>
  <g fill="#F8FAFC">
    <rect x="180" y="260" width="220" height="28" rx="14" opacity="0.18"/>
    <rect x="180" y="310" width="420" height="22" rx="11" opacity="0.28"/>
    <rect x="180" y="350" width="360" height="16" rx="8" opacity="0.16"/>
  </g>
</svg>
